inDegrees=no
num_controls=7
num_derivatives=13
num_iterations=165
num_multipliers=7
num_parameters=0
num_slacks=7
num_states=26
objective=6.211593
objective_accelerations=0.722022
objective_balance=0.050520
objective_effort=0.623905
objective_height=4.767956
objective_ligament=0.047190
solver_duration=1790.726575
status=Solve_Succeeded
success=true
DataType=double
version=3
OpenSimVersion=4.4-2022-07-23-0e9fedc
endheader
time	/jointset/ground_pelvis/pelvis_tilt/value	/jointset/ground_pelvis/pelvis_tx/value	/jointset/ground_pelvis/pelvis_ty/value	/jointset/hip_l/hip_flexion_l/value	/jointset/hip_l/hip_adduction_l/value	/jointset/hip_l/hip_rotation_l/value	/jointset/back/lumbar_extension/value	/jointset/patellofemoral_l/patellar_flexion_l/value	/jointset/knee_l/knee_flexion_l/value	/jointset/knee_l/knee_adduction_l/value	/jointset/knee_l/knee_rotation_l/value	/jointset/ankle_l/ankle_angle_l/value	/jointset/subtalar_l/subtalar_angle_l/value	/jointset/ground_pelvis/pelvis_tilt/speed	/jointset/ground_pelvis/pelvis_tx/speed	/jointset/ground_pelvis/pelvis_ty/speed	/jointset/hip_l/hip_flexion_l/speed	/jointset/hip_l/hip_adduction_l/speed	/jointset/hip_l/hip_rotation_l/speed	/jointset/back/lumbar_extension/speed	/jointset/patellofemoral_l/patellar_flexion_l/speed	/jointset/knee_l/knee_flexion_l/speed	/jointset/knee_l/knee_adduction_l/speed	/jointset/knee_l/knee_rotation_l/speed	/jointset/ankle_l/ankle_angle_l/speed	/jointset/subtalar_l/subtalar_angle_l/speed	/forceset/tau_hip_flexion_l	/forceset/tau_hip_adduction_l	/forceset/tau_hip_rotation_l	/forceset/tau_knee_flexion_l	/forceset/tau_ankle_angle_l	/forceset/tau_subtalar_angle_l	/forceset/tau_lumbar_extension	lambda_cid13_p0	lambda_cid13_p1	lambda_cid13_p2	lambda_cid13_p3	lambda_cid13_p4	lambda_cid13_p5	lambda_cid14_p0	/jointset/ground_pelvis/pelvis_tilt/accel	/jointset/ground_pelvis/pelvis_tx/accel	/jointset/ground_pelvis/pelvis_ty/accel	/jointset/hip_l/hip_flexion_l/accel	/jointset/hip_l/hip_adduction_l/accel	/jointset/hip_l/hip_rotation_l/accel	/jointset/back/lumbar_extension/accel	/jointset/patellofemoral_l/patellar_flexion_l/accel	/jointset/knee_l/knee_flexion_l/accel	/jointset/knee_l/knee_adduction_l/accel	/jointset/knee_l/knee_rotation_l/accel	/jointset/ankle_l/ankle_angle_l/accel	/jointset/subtalar_l/subtalar_angle_l/accel	gamma_cid13_p0	gamma_cid13_p1	gamma_cid13_p2	gamma_cid13_p3	gamma_cid13_p4	gamma_cid13_p5	gamma_cid14_p0
1	-0.2668084853043438	-0.1150018609968585	0.6076959064177707	1.691655009210762	-0.3115538810807203	0.06572627495092988	-0.9599277330328938	1.479081339155904	1.479081339155752	-0.012664799026645	-0.1745285505408669	0.1555742124741983	0.03470109419883091	0.08888399532447754	0.01813346855859582	0.07699113925338097	-0.2900483395698048	-0.007616398433868158	-0.05870652410730218	5.890173907180997e-05	-0.1607535060059562	-0.1607535060059517	-0.00632504993141694	1.115590141149023e-05	0.03245097687321697	0.004545042080744212	-0.4923929777832249	-0.0121936019615105	-0.004404110726172568	-0.3349230786311388	0.1178351446796353	0.02650776209570783	0.4869176389327721	-15.58218527574559	-6.631262523621754	-1.856039124754077	10.83199337456386	-827.2580424393695	-61.16715437261578	-0.04063668755787531	1.1651747518277	0.04817222490202066	1.969400237776492	-6.431641565556463	-0.2398843545167415	-1.529308947674696	-0.01155576990160085	-5.382300091439834	-5.382300091439815	-0.6655795363505238	-0.02489890851828101	-0.4719495631226047	-0.4402238455465231	-5.723012217663377e-09	-6.432033287595654e-09	8.753129470654367e-09	-7.603498725583152e-09	-2.160400799357147e-08	1.112581689624846e-07	-1.379854193568931e-08
1.01	-0.2658616621539041	-0.1148180566904285	0.6085640627969284	1.688433745452256	-0.3116411652700345	0.06506279892140207	-0.9599272499550682	1.477204997678548	1.477204997678355	-0.01276024822579653	-0.1745284310542245	0.1558750887457819	0.03472553908325519	0.1004994927775602	0.01863690368798641	0.09662644448106111	-0.3541872206965703	-0.009830190374436555	-0.07398229370326732	3.217166730679322e-05	-0.2145001572755775	-0.2145001572755682	-0.01275907084323514	1.214751487712667e-05	0.02770389858775052	0.0003476245045122888	-0.4914289642422547	-0.01200896090351918	-0.004431153530708658	-0.3349327537943583	0.1178740333917255	0.02670824089535402	0.4864229094046123	-15.51975661900274	-6.736911304143325	-1.830457835159213	10.63702941915316	-826.7166402758213	-61.32194096351548	-0.04067152700165309	1.16256297086257	0.05285409541614947	1.958536319939933	-6.402436088022493	-0.2105844337397158	-1.525768983783182	0.0009370476185356497	-5.368648997713493	-5.368648997712753	-0.6314700133528769	0.01251666353531648	-0.479145465772618	-0.4089463961910885	-9.730265743001205e-09	-1.784634105249516e-08	1.811295793106953e-08	-8.518768056752804e-09	-2.759338604122279e-08	1.341283978763708e-07	-1.904032557035458e-08
1.02	-0.2647981188831956	-0.1146289330450134	0.6096281603592986	1.68457160794202	-0.3117502789427527	0.06424675359229742	-0.9599272004420811	1.474791629417898	1.474791629417767	-0.01291986896303991	-0.17452831795776	0.1561278825336074	0.03470812065541166	0.1122280193832183	0.01919733635563373	0.1161793758957925	-0.4182230898947796	-0.01198229511153496	-0.08922038402825284	-2.781146705475195e-05	-0.2681588626648115	-0.2681588626647972	-0.01915935754525716	9.87781860517546e-06	0.02283448012172642	-0.003827620372895776	-0.490464950701588	-0.01182431984549987	-0.004458196335489974	-0.334942428957561	0.117912922103905	0.02690871969507084	0.4859281798761534	-15.46419982323495	-6.841130980654426	-1.805362020165991	10.47399682581398	-826.2649850701221	-61.4538633665033	-0.04070711015300191	1.187780582342827	0.05957173255335423	1.952925475186747	-6.411039179845205	-0.2275469138226006	-1.521773093478674	-0.01820638241550553	-5.364710915362397	-5.364710915362367	-0.6588326943912372	-0.02555117046555558	-0.4964175992341278	-0.4357893057815935	-1.332644953938197e-08	-2.903287206743942e-08	2.731526433329714e-08	-9.802943555896651e-09	-3.293847950353693e-08	1.540628554900618e-07	-2.391982861231312e-08
1.03	-0.2636167561515198	-0.114433895771517	0.6108872927870441	1.680069850999349	-0.3118805738967758	0.06327855755902462	-0.9599278508203893	1.471842173623165	1.471842173623111	-0.01314332543639108	-0.1745282523917752	0.1563312375809649	0.03464904942309089	0.1240595265892476	0.01982190040664841	0.1356252962278555	-0.4820888476968125	-0.01406149552169472	-0.1044087975761685	-0.0001006952226560864	-0.3217124567419316	-0.3217124567419354	-0.0255241248020487	4.880327643152414e-06	0.01780328469574863	-0.00798179511810502	-0.4891476538144937	-0.01158520844551521	-0.00449177228438124	-0.3348271478710866	0.1180474595998399	0.0271989224566446	0.485210027915179	-15.34998013107754	-6.999921037316098	-1.765476356280409	10.22677936057265	-825.4630095100935	-61.65993433552521	-0.0407596875881546	1.183081550404857	0.0656638247362801	1.937145610678814	-6.36843125070798	-0.1958222225662964	-1.515896499618806	-0.001594044283477704	-5.347701934474935	-5.347701934477904	-0.6241487917516512	0.01228526316964256	-0.5114602518353848	-0.4045045652998395	-1.691843874669174e-08	-4.021707882983312e-08	3.651596336758405e-08	-1.10908834036933e-08	-3.827699863334763e-08	1.739673562537508e-07	-2.879563491352975e-08
